<?xml version="1.0" encoding="UTF-8"?>
<svg id="_图层_1" data-name="图层 1" xmlns="http://www.w3.org/2000/svg" viewBox="0 0 2222 2500">
  <defs>
    <style>
      .cls-1 {
        fill: #fff;
      }

      .cls-2 {
        fill: #5c8dbc;
      }

      .cls-3 {
        fill: #1b598e;
      }

      .cls-4 {
        fill: #1a4674;
      }
    </style>
  </defs>
  <path class="cls-1" d="m2219.74,735.34c-.02-42.06-9.01-79.22-27.2-111.11-17.87-31.36-44.62-57.65-80.51-78.43-296.26-170.82-592.81-341.13-888.97-512.13-79.84-46.1-157.26-44.41-236.51,2.34-117.92,69.54-708.31,407.79-884.23,509.69C29.86,587.64-5.4,651.83-5.41,735.26c-.11,343.54,0,687.07-.11,1030.62.02,41.13,8.63,77.57,26.02,108.99,17.88,32.31,45.01,59.32,81.72,80.58,175.94,101.9,766.4,440.12,884.29,509.68,79.29,46.78,156.7,48.46,236.57,2.34,296.17-171.01,592.74-341.3,889.04-512.13,36.72-21.25,63.85-48.27,81.73-80.56,17.36-31.42,25.99-67.85,26.01-109,0,0,0-686.9-.11-1030.44"/>
  <path class="cls-2" d="m2150.84,766.52c-.02-39.37-8.44-74.16-25.46-104.01-16.73-29.36-41.77-53.97-75.37-73.42-277.34-159.91-554.94-319.34-832.19-479.41-74.74-43.15-147.21-41.58-221.4,2.19-110.39,65.1-663.06,381.74-827.75,477.13-67.82,39.26-100.83,99.35-100.84,177.45-.11,321.6,0,643.18-.11,964.79.02,38.51,8.08,72.62,24.36,102.03,16.73,30.25,42.13,55.53,76.5,75.43,164.7,95.39,717.45,412.01,827.81,477.12,74.22,43.79,146.69,45.36,221.46,2.19,277.25-160.08,554.88-319.5,832.25-479.41,34.37-19.89,59.77-45.19,76.5-75.41,16.25-29.41,24.33-63.52,24.35-102.03,0,0,0-643.02-.11-964.62"/>
  <path class="cls-4" d="m1112.52,1245.7L92.06,1833.26c16.73,30.25,42.13,55.53,76.5,75.43,164.7,95.39,717.45,412.01,827.81,477.12,74.22,43.79,146.69,45.36,221.46,2.19,277.25-160.08,554.88-319.5,832.25-479.41,34.37-19.89,59.77-45.19,76.5-75.41l-1014.08-587.47"/>
  <path class="cls-4" d="m810.27,1419.74c59.38,103.66,171.01,173.58,299.06,173.58s241.11-70.81,300.18-175.58l-297-172.04-302.25,174.04"/>
  <path class="cls-3" d="m2150.84,766.52c-.02-39.37-8.44-74.16-25.46-104.01l-1012.86,583.2,1014.08,587.47c16.25-29.41,24.33-63.52,24.35-102.03,0,0,0-643.02-.11-964.62"/>
  <path class="cls-1" d="m2095.08,1287.7h-79.24v79.26h-79.26v-79.26h-79.24v-79.24h79.24v-79.24h79.26v79.24h79.24v79.24m-289.15,0h-79.24v79.26h-79.24v-79.26h-79.24v-79.24h79.24v-79.24h79.24v79.24h79.24v79.24"/>
  <path class="cls-1" d="m1409.51,1417.75c-59.08,104.77-171.34,175.58-300.18,175.58s-239.68-69.92-299.06-173.58c-29.83-52.02-45.5-110.95-45.43-170.91,0-190.25,154.24-344.48,344.49-344.48,127.23,0,238.27,69.05,297.94,171.65l301.1-173.39c-119.68-206.59-343.12-345.58-599.05-345.58-382.08,0-691.81,309.74-691.81,691.8,0,125.35,33.35,242.89,91.62,344.28,119.38,207.69,343.46,347.53,600.19,347.53s481.63-140.41,600.84-348.71l-300.66-174.19"/>
</svg>