<?xml version="1.0" encoding="UTF-8"?>
<svg id="_图层_1" data-name="图层 1" xmlns="http://www.w3.org/2000/svg" viewBox="0 0 2500 2500">
  <defs>
    <style>
      .cls-1 {
        fill: #fff;
      }

      .cls-2 {
        fill: #813084;
      }

      .cls-3 {
        fill: #6a1577;
      }

      .cls-4 {
        fill: #9a4993;
      }
    </style>
  </defs>
  <path class="cls-1" d="m2337.16,745.48c0-40.86-8.71-77.7-26.79-108.52-17.41-30.81-43.54-56.27-78.37-76.36-289.38-166.79-579.42-333.58-868.79-500.38-78.37-44.88-153.4-43.54-231.1,2.01-115.21,67.66-692.62,398.56-864.1,498.37-71.01,40.86-105.17,103.83-105.17,185.55v1007.45c0,40.19,8.71,75.69,25.45,106.51,17.42,31.48,44.21,58.28,79.71,79.04,172.15,99.81,748.89,430.04,864.1,498.37,77.7,45.54,153.39,47.55,231.1,2.01,289.38-167.46,579.42-333.58,868.79-500.38,36.17-20.76,62.3-46.89,79.71-79.04,16.75-30.81,25.45-66.32,25.45-106.51v-1008.12Z"/>
  <path class="cls-4" d="m2263.99,778.57c0-38.06-8.11-72.38-24.96-101.09-16.22-28.7-40.56-52.41-73.01-71.13-269.57-155.38-539.76-310.75-809.32-466.12-73.01-41.81-142.9-40.56-215.28,1.87-107.33,63.03-645.21,371.28-804.95,464.25-66.15,38.06-97.97,96.72-97.97,172.85v938.49c0,37.44,8.11,70.51,23.71,99.22,16.23,29.33,41.19,54.29,74.26,73.63,160.37,92.98,697.63,400.61,804.95,464.25,72.38,42.42,142.89,44.29,215.28,1.87,269.57-156,539.76-310.75,809.32-466.12,33.69-19.34,58.03-43.68,74.25-73.63,15.6-28.71,23.71-61.78,23.71-99.22v-939.11Z"/>
  <path class="cls-3" d="m1253.75,1244.7l-992.78,571.58c16.23,29.33,41.19,54.29,74.26,73.63,160.37,92.97,697.63,400.6,804.95,464.25,72.38,42.43,142.9,44.31,215.28,1.87,269.57-156,539.76-310.75,809.32-466.12,33.69-19.35,58.03-43.68,74.25-73.63l-985.29-571.58Z"/>
  <path class="cls-3" d="m959.84,1413.8c58.03,101.09,166.61,169.1,290.78,169.1s234.62-68.64,292.03-170.98l-288.91-167.23-293.9,169.1Z"/>
  <path class="cls-2" d="m2263.99,778.57c0-38.06-8.11-72.38-24.96-101.09l-985.29,567.21,986.54,571.58c15.6-28.71,23.71-61.78,23.71-99.22v-938.49Z"/>
  <g>
    <path class="cls-1" d="m1542.65,1411.93c-57.41,101.71-166.6,170.98-292.03,170.98s-233.37-68.02-290.78-169.1c-28.08-49.29-44.31-105.45-44.31-165.98,0-185.33,149.76-335.09,335.09-335.09,123.55,0,231.5,67.39,289.53,167.23l292.65-168.48c-116.68-200.92-333.84-336.33-582.81-336.33-371.9,0-672.67,301.39-672.67,672.67,0,121.68,32.45,236.5,89.23,335.09,116.06,201.55,334.46,337.58,584.06,337.58s468.62-136.65,584.68-339.45l-292.65-169.1Zm370.03-323.23h-66.77v322.61h66.77v-322.61Zm147.89,0h-66.77v322.61h66.77v-322.61Z"/>
    <path class="cls-1" d="m2114.86,1142.99h-322.61v66.77h322.61v-66.77Zm0,147.26h-322.61v66.77h322.61v-66.77Z"/>
  </g>
</svg>